<?xml version="1.0" encoding="utf-8"?>
<!-- Generator: Adobe Illustrator 16.0.0, SVG Export Plug-In . SVG Version: 6.00 Build 0)  -->
<!DOCTYPE svg PUBLIC "-//W3C//DTD SVG 1.1//EN" "http://www.w3.org/Graphics/SVG/1.1/DTD/svg11.dtd">
<svg version="1.1" id="Layer_1" xmlns="http://www.w3.org/2000/svg" xmlns:xlink="http://www.w3.org/1999/xlink" x="0px" y="0px"
	 width="5354.123px" height="1509.293px" viewBox="21.138 2081.049 5354.123 1509.293"
	 enable-background="new 21.138 2081.049 5354.123 1509.293" xml:space="preserve">
<title>logo</title>
<g>
	<g>
		<path fill="#329AA4" d="M516.594,3179.721c-16.447,0-29.816,13.398-29.816,29.832c0,16.486,13.369,29.879,29.816,29.879
			c16.463,0,29.855-13.394,29.855-29.879C546.449,3193.119,533.057,3179.721,516.594,3179.721z"/>
		<path fill="#329AA4" d="M516.594,2081.049c-270.266,0-490.172,219.882-490.172,490.187c0,247.31,394.361,907.979,439.297,982.53
			c10.769,17.823,30.06,28.723,50.875,28.723c20.84,0,40.123-10.898,50.866-28.723c44.976-74.525,439.336-735.222,439.336-982.53
			C1006.78,2300.961,786.858,2081.049,516.594,2081.049z M749.415,2523.134l-213.007,213.03v32.263
			c0,46.155-23.3,80.887-42.029,108.805c-17.063,25.433-27.363,41.842-23.957,57.767c3.518,16.432,22.574,35.599,56.682,56.983
			c41.451,25.965,67.705,62.798,73.908,103.711c4.75,31.324-2.923,62.392-20.104,87.84c3.272,8.041,5.164,16.8,5.164,26.021
			c0,38.334-31.168,69.502-69.479,69.502c-38.294,0-69.432-31.168-69.432-69.502c0-38.279,31.138-69.447,69.432-69.447
			c13.885,0,26.771,4.172,37.64,11.229c7.228-15.198,10.204-32.614,7.609-49.694c-3.142-20.738-15.377-50.772-55.772-76.099
			c-44.758-28.025-68.394-54.17-74.395-82.252c-7.07-33.161,11.674-61.104,29.811-88.139c17.361-25.878,35.301-52.625,35.301-86.723
			v-32.262L284.6,2523.986c-68.627-68.627-68.604-178.971-0.807-246.824c33.817-33.785,79.824-51.647,126.887-50.633
			c7.188-7.548,17.494-11.899,28.526-9.938c6.017,1.039,12.01,2.368,17.894,4.04c17.166,4.845,27.152,22.698,22.301,39.864
			c-4.023,14.236-16.979,23.535-31.067,23.535c-2.914,0-5.867-0.398-8.798-1.234c-3.773-1.062-7.604-1.898-11.455-2.578
			c-9.134-1.586-16.533-6.955-21.261-14.119c-35.333,0-69.619,13.722-95.005,39.076c-52.359,52.398-52.383,137.604-0.04,189.934
			l204.817,204.833l203.959-203.966c26.23-26.199,40.187-59.924,40.187-95.795c0-35.881-13.955-69.611-39.334-94.99
			c-25.401-25.37-59.728-39.092-95.029-39.092c-4.727,7.166-12.134,12.519-21.253,14.119c-3.758,0.656-7.492,1.438-11.195,2.508
			c-3.009,0.875-6.041,1.305-9.025,1.305c-14.002,0-26.91-9.188-31.004-23.301c-4.985-17.136,4.867-35.06,22.003-40.037
			c5.962-1.733,11.985-3.039,18.063-4.102c11.025-1.946,21.348,2.406,28.561,9.962c47.054-0.992,93.074,16.837,126.893,50.624
			c32.864,32.855,50.945,76.534,50.945,123.002C800.36,2446.654,782.264,2490.316,749.415,2523.134z"/>
	</g>
	<g>
		<path fill="#58595B" d="M1506.444,3312.207h73.222c48.727,0,75.895,20.659,75.895,59.039c0,35.428-20.676,53.147-52.272,59.071
			l55.21,100.365h-23.611l-53.453-98.021h-54.312v98.021h-20.675v-218.476H1506.444z M1578.197,3414.065
			c36.013,0,56.391-10.33,56.391-41.912c0-30.138-20.081-40.756-56.688-40.756h-50.781v82.668H1578.197L1578.197,3414.065z"/>
		<path fill="#58595B" d="M1684.001,3452.735c0-55.213,35.429-80.582,68.197-80.582c36.31,0,63.478,27.746,63.478,80.886v3.812
			h-111.305c0.297,38.382,22.145,59.97,49,59.97c23.338,0,36.621-10.049,48.428-28.332l12.705,10.019
			c-13.596,21.848-32.785,35.419-62.306,35.419C1715.889,3533.927,1684.001,3505.897,1684.001,3452.735z M1795.893,3440.623
			c-2.063-29.519-16.245-51.365-43.977-51.365c-22.447,0-43.404,16.252-47.249,51.365H1795.893z"/>
		<path fill="#58595B" d="M1846.751,3375.092h20.378v24.496c15.058-14.76,34.825-27.435,59.338-27.435
			c30.698,0,46.356,17.104,46.356,46.062v112.469h-20.378v-108.655c0-21.847-9.734-32.458-30.996-32.458
			c-20.081,0-36.904,10.33-54.32,27.146v113.969h-20.377L1846.751,3375.092L1846.751,3375.092z"/>
		<path fill="#58595B" d="M2002.438,3453.039c0-54.326,28.628-80.886,65.828-80.886c20.082,0,38.101,10.611,50.211,24.216v-84.161
			h20.361v180.095c0,18.902,1.188,30.42,4.729,38.381h-21.551c-1.772-5.306-3.539-14.479-3.539-22.722
			c-12.705,13.571-28.645,25.401-51.977,25.401C2030.785,3533.362,2002.438,3507.367,2002.438,3453.039z M2118.477,3490.545v-75.582
			c-15.354-16.531-30.427-25.705-48.429-25.705c-27.466,0-47.249,20.097-47.249,64.095c0,42.787,21.268,62.571,47.249,62.571
			C2089.238,3515.924,2103.717,3506.155,2118.477,3490.545z"/>
		<path fill="#58595B" d="M2169.922,3452.735c0-55.213,35.428-80.582,68.197-80.582c36.311,0,63.479,27.746,63.479,80.886v3.812
			h-111.306c0.289,38.382,22.145,59.97,49,59.97c23.338,0,36.621-10.049,48.443-28.332l12.674,10.019
			c-13.58,21.848-32.771,35.419-62.29,35.419C2201.809,3533.927,2169.922,3505.897,2169.922,3452.735z M2281.812,3440.623
			c-2.062-29.519-16.244-51.365-43.99-51.365c-22.434,0-43.389,16.252-47.241,51.365H2281.812z"/>
		<path fill="#58595B" d="M2321.17,3517.696l94.771-125.502h-87.092v-17.104h112.773v13.291l-94.771,125.479h98.896v16.822h-124.58
			v-12.986H2321.17z"/>
		<path fill="#58595B" d="M2470.637,3429.139h66.432v17.697h-66.432V3429.139z"/>
		<path fill="#58595B" d="M2556.906,3375.092h21.848l46.053,131.377h0.595l45.756-131.377h20.683l-57.265,156.186h-20.401
			L2556.906,3375.092z"/>
		<path fill="#58595B" d="M2706.959,3453.039c0-51.982,32.201-80.886,70.588-80.886c38.068,0,70.275,28.902,70.275,80.886
			c0,51.681-32.207,80.888-70.275,80.888C2739.447,3533.927,2706.959,3504.72,2706.959,3453.039z M2827.445,3452.735
			c0-33.959-17.137-63.166-49.898-63.166c-31.613,0-50.186,26.582-50.186,63.166c0,34.543,16.799,63.781,50.186,63.781
			C2808.818,3516.518,2827.445,3490.239,2827.445,3452.735z"/>
		<path fill="#58595B" d="M2877.389,3487.584v-112.492h20.402v108.938c0,21.869,9.432,32.488,30.996,32.488
			c19.783,0,36.6-10.619,54.014-27.15v-114.274h20.662v155.592h-20.662v-24.526c-15.041,14.791-34.824,27.771-59.037,27.771
			C2892.744,3533.927,2877.389,3516.518,2877.389,3487.584z"/>
		<path fill="#58595B" d="M3032.217,3505.897l12.979-11.821c11.801,13.572,26.895,22.44,48.43,22.44
			c26.59,0,40.443-9.744,40.443-27.151c0-17.136-12.418-23.91-42.812-31.021c-35.701-8.86-54.047-18.291-54.047-45.437
			c0-22.16,19.221-40.756,52.859-40.756c26.59,0,43.693,8.859,57.602,22.408l-11.541,13.604
			c-11.797-11.798-26.582-19.222-45.436-19.222c-24.223,0-33.699,11.236-33.699,23.058c0,15.073,10.664,21.254,37.816,27.746
			c38.951,9.455,59.039,18.909,59.039,49.305c0,28.34-25.395,44.593-60.531,44.593
			C3065.596,3533.646,3044.014,3521.823,3032.217,3505.897z"/>
		<path fill="#58595B" d="M3244.637,3375.092h20.35v24.496c15.666-15.332,33.697-27.435,56.984-27.435
			c26.275,0,38.074,11.484,42.811,28.027c16.229-15.354,35.754-28.027,58.789-28.027c31.842,0,44.873,17.979,44.873,46.062v112.469
			h-20.4v-108.655c0-21.847-7.367-32.458-29.215-32.458c-18.91,0-34.52,10.33-51.984,27.146v113.969h-20.346v-108.655
			c0-21.847-7.424-32.458-29.527-32.458c-18.598,0-34.568,10.33-51.984,27.146v113.969h-20.348v-155.594H3244.637z"/>
		<path fill="#58595B" d="M3498.064,3452.735c0-55.213,35.449-80.582,68.213-80.582c36.324,0,63.477,27.746,63.477,80.886v3.812
			H3518.42c0.305,38.382,22.205,59.97,49.045,59.97c23.293,0,36.582-10.049,48.428-28.332l12.676,10.019
			c-13.596,21.848-32.764,35.419-62.291,35.419C3529.961,3533.927,3498.064,3505.897,3498.064,3452.735z M3609.969,3440.623
			c-2.061-29.519-16.227-51.365-43.996-51.365c-22.408,0-43.381,16.252-47.248,51.365H3609.969z M3583.693,3312.488h26.848
			l-41.584,46.062h-13.291L3583.693,3312.488z"/>
		<path fill="#58595B" d="M3652.264,3453.039c0-54.326,28.654-80.886,65.848-80.886c20.096,0,38.076,10.611,50.188,24.216v-84.161
			h20.4v180.095c0,18.902,1.131,30.42,4.734,38.381h-21.58c-1.76-5.306-3.557-14.479-3.557-22.722
			c-12.674,13.571-28.6,25.401-51.938,25.401C3680.605,3533.362,3652.264,3507.367,3652.264,3453.039z M3768.299,3490.545v-75.582
			c-15.354-16.531-30.402-25.705-48.383-25.705c-27.457,0-47.24,20.097-47.24,64.095c0,42.787,21.221,62.571,47.24,62.571
			C3739.082,3515.924,3753.562,3506.155,3768.299,3490.545z"/>
		<path fill="#58595B" d="M3819.766,3452.735c0-55.213,35.441-80.582,68.213-80.582c36.316,0,63.471,27.746,63.471,80.886v3.812
			h-111.281c0.305,38.382,22.152,59.97,48.998,59.97c23.34,0,36.631-10.049,48.43-28.332l12.672,10.019
			c-13.549,21.848-32.77,35.419-62.289,35.419C3851.652,3533.927,3819.766,3505.897,3819.766,3452.735z M3931.664,3440.623
			c-2.053-29.519-16.229-51.365-43.941-51.365c-22.465,0-43.438,16.252-47.25,51.365H3931.664z"/>
		<path fill="#58595B" d="M3973.711,3453.039c0-55.797,34.52-80.886,69.344-80.886c33.391,0,49.924,19.783,59.666,42.507
			l-17.418,7.672c-8.555-20.963-20.971-32.762-42.811-32.762c-23.033,0-48.438,16.532-48.438,63.166
			c0,40.748,20.668,63.78,47.812,63.78c21.588,0,33.701-10.049,44.623-33.082l16.535,7.109
			c-12.416,26.276-30.451,43.382-62.033,43.382C4005.293,3533.927,3973.711,3504.72,3973.711,3453.039z"/>
		<path fill="#58595B" d="M4133.215,3317.23h21.537v21.847h-21.537V3317.23z M4133.787,3375.092h20.402v155.592h-20.402V3375.092z"
			/>
		<path fill="#58595B" d="M4195.508,3375.092h20.4v24.496c15.049-14.76,34.832-27.435,59.307-27.435
			c30.754,0,46.42,17.104,46.42,46.062v112.469h-20.41v-108.655c0-21.847-9.732-32.458-31.014-32.458
			c-20.039,0-36.885,10.33-54.303,27.146v113.969h-20.4V3375.092L4195.508,3375.092z"/>
		<path fill="#58595B" d="M4410.295,3452.735c0-55.213,35.451-80.582,68.221-80.582c36.318,0,63.471,27.746,63.471,80.886v3.812
			h-111.334c0.305,38.382,22.15,59.97,49.045,59.97c23.293,0,36.582-10.049,48.381-28.332l12.723,10.019
			c-13.596,21.848-32.764,35.419-62.285,35.419C4442.191,3533.927,4410.295,3505.897,4410.295,3452.735z M4522.203,3440.623
			c-2.064-29.519-16.23-51.365-44-51.365c-22.465,0-43.436,16.252-47.248,51.365H4522.203z"/>
		<path fill="#58595B" d="M4573.053,3375.092h20.402v24.496c15.049-14.76,34.832-27.435,59.305-27.435
			c30.754,0,46.367,17.104,46.367,46.062v112.469h-20.355v-108.655c0-21.847-9.734-32.458-31.014-32.458
			c-20.041,0-36.939,10.33-54.303,27.146v113.969h-20.402V3375.092z"/>
		<path fill="#58595B" d="M4798.406,3312.207h20.4v218.477h-20.4V3312.207z"/>
		<path fill="#58595B" d="M4861.367,3317.23h21.535v21.847h-21.535V3317.23z M4861.93,3375.092h20.4v155.592h-20.4V3375.092z"/>
		<path fill="#58595B" d="M4906.547,3551.343c0-15.923,10.664-28.339,28.65-35.419c-9.43-3.836-13.861-10.33-13.861-19.784
			s7.674-17.416,18.908-23.315c-14.789-9.453-23.648-25.401-23.648-44.592c0-33.053,26.275-56.078,61.414-56.078
			c18.035,0,33.389,5.875,44.311,15.916c9.117-6.799,23.598-12.674,36.012-14.166v19.222c-9.17,0-19.479,1.438-28.338,5.307
			c5.877,7.953,9.117,17.721,9.117,29.801c0,33.98-26.535,55.203-61.104,55.203c-9.117,0-17.416-1.471-25.088-4.431
			c-7.369,2.96-12.371,7.398-12.371,13.298c0,6.485,5.564,10.041,22.982,11.791l33.949,2.68
			c36.012,2.938,54.922,15.354,54.922,39.568c0,28.34-29.52,43.999-72.025,43.999
			C4929.885,3590.341,4906.547,3575.276,4906.547,3551.343z M5033.492,3548.1c0-14.736-11.797-22.127-42.449-24.503l-31.014-2.345
			c-2.68-0.305-5.361-0.616-7.984-0.896c-17.418,5.617-25.973,16.532-25.973,28.332c0,16.26,17.111,25.682,56.367,25.682
			C5014.334,3574.368,5033.492,3563.758,5033.492,3548.1z M5019.943,3428.514c0-24.777-15.354-40.131-41.936-40.131
			c-25.658,0-41.631,15.916-41.631,40.131c0,23.933,16.543,39.285,41.943,39.285
			C5003.715,3467.8,5019.943,3452.445,5019.943,3428.514z"/>
		<path fill="#58595B" d="M5082.908,3375.092h20.4v24.496c15.041-14.76,34.824-27.435,59.297-27.435
			c30.762,0,46.375,17.104,46.375,46.062v112.469h-20.355v-108.655c0-21.847-9.734-32.458-31.014-32.458
			c-20.041,0-36.941,10.33-54.303,27.146v113.969h-20.402v-155.593H5082.908z"/>
		<path fill="#58595B" d="M5238.295,3452.735c0-55.213,35.443-80.582,68.215-80.582c36.316,0,63.467,27.746,63.467,80.886v3.812
			h-111.334c0.312,38.382,22.207,59.97,49.047,59.97c23.291,0,36.582-10.049,48.438-28.332l12.672,10.019
			c-13.604,21.848-32.77,35.419-62.289,35.419C5270.182,3533.927,5238.295,3505.897,5238.295,3452.735z M5350.193,3440.623
			c-2.055-29.519-16.229-51.365-43.996-51.365c-22.465,0-43.383,16.252-47.244,51.365H5350.193z"/>
	</g>
	<g>
		<path fill="#1C2856" d="M1920.676,2143.4c0-16.463,5.642-30.372,17.002-41.709c11.308-11.322,25.215-16.995,41.701-16.995
			c15.448,0,29.074,5.673,40.937,16.995c11.821,11.338,17.761,25.246,17.761,41.709v707.491c0,38.122-7.486,74.157-22.4,108.141
			c-14.94,33.974-35.021,63.603-60.235,88.816c-25.263,25.223-54.845,45.061-88.825,59.483
			c-33.989,14.426-70.057,21.613-108.133,21.613c-39.153,0-75.448-7.188-108.914-21.613c-33.473-14.424-63.088-34.262-88.816-59.483
			c-25.754-25.216-45.836-54.845-60.244-88.816c-14.438-33.981-21.628-70.019-21.628-108.141v-222.446
			c0-38.083,7.463-74.15,22.402-108.132c14.915-33.974,34.997-63.564,60.241-88.817c25.215-25.223,54.846-45.045,88.817-59.47
			c33.989-14.416,70.019-21.628,108.142-21.628c29.863,0,58.431,4.625,85.723,13.9c27.277,9.274,52.766,22.151,76.473,38.623V2143.4
			H1920.676z M1596.27,2850.893c0,21.635,4.109,42.24,12.369,61.781c8.211,19.589,19.808,36.85,34.748,51.766
			c14.914,14.939,32.176,26.512,51.748,34.755c19.559,8.243,40.679,12.361,63.346,12.361c21.628,0,42.468-4.118,62.548-12.361
			c20.097-8.243,37.325-19.814,51.766-34.755c14.399-14.916,25.996-32.177,34.739-51.766c8.743-19.541,13.143-40.146,13.143-61.781
			v-222.446c0-21.627-4.125-42.209-12.354-61.79c-8.26-19.55-19.848-36.811-34.764-51.75
			c-14.947-14.916-32.199-26.496-51.741-34.747c-19.581-8.235-40.693-12.354-63.337-12.354c-21.62,0-42.49,4.118-62.571,12.354
			c-20.081,8.251-37.325,19.831-51.734,34.747c-14.438,14.939-26.034,32.2-34.77,51.75c-8.769,19.581-13.136,40.162-13.136,61.79
			V2850.893z"/>
		<path fill="#1C2856" d="M2149.286,2628.445c0-38.083,7.188-74.15,21.62-108.132c14.416-33.974,34.497-63.563,60.243-88.817
			c25.737-25.223,55.351-45.045,88.81-59.47c33.489-14.416,69.76-21.628,108.913-21.628c38.076,0,74.145,7.212,108.148,21.628
			c33.974,14.425,63.571,34.247,88.794,59.47c25.223,25.254,45.312,54.844,60.229,88.817
			c14.939,33.981,22.439,70.049,22.439,108.132v222.446c0,38.122-7.244,74.158-21.644,108.142
			c-14.425,33.973-34.489,63.602-60.252,88.815c-25.737,25.223-55.594,45.062-89.566,59.483
			c-34.005,14.426-70.072,21.613-108.148,21.613c-38.1,0-74.135-7.188-108.116-21.613c-33.988-14.424-63.61-34.262-88.832-59.483
			c-25.246-25.215-45.327-54.844-60.243-88.815c-14.939-33.982-22.395-70.02-22.395-108.142V2628.445z M2266.678,2850.893
			c0,21.635,4.36,42.24,13.136,61.781c8.743,19.589,20.314,36.85,34.763,51.766c14.424,14.939,31.661,26.512,51.757,34.755
			c20.066,8.243,40.929,12.361,62.54,12.361c22.646,0,43.772-4.118,63.346-12.361c19.558-8.243,36.786-19.814,51.759-34.755
			c14.885-14.916,26.479-32.177,34.778-51.766c8.211-19.541,12.312-40.146,12.312-61.781v-222.446
			c0-21.627-4.384-42.209-13.119-61.79c-8.751-19.55-20.322-36.811-34.747-51.75c-14.455-14.916-31.659-26.496-51.75-34.747
			c-20.071-8.235-40.935-12.354-62.579-12.354c-22.667,0-43.764,4.118-63.345,12.354c-19.572,8.251-36.812,19.831-51.726,34.747
			c-14.939,14.939-26.535,32.2-34.764,51.75c-8.26,19.581-12.361,40.162-12.361,61.79V2850.893z"/>
		<path fill="#1C2856" d="M2813.506,2628.445c0-39.115,7.492-75.683,22.41-109.672c14.947-33.98,35.527-63.336,61.805-88.052
			c26.271-24.722,56.594-44.271,91.139-58.695c34.488-14.416,71.307-21.628,110.438-21.628c7.18,0,21.381,1.305,42.508,3.868
			c21.041,2.569,44.514,9.532,70.268,20.854c25.738,11.33,51.24,28.566,76.463,51.734c25.238,23.183,46.086,55.375,62.572,96.552
			c3.086,8.259,4.633,15.456,4.633,21.629c0,16.471-5.664,30.378-17,41.701c-11.332,11.353-25.248,17.002-41.734,17.002
			c-12.314,0-23.387-3.344-33.176-10.057c-9.846-6.688-16.746-15.674-20.871-27.026c-14.445-30.896-35.004-55.086-61.797-72.604
			c-26.793-17.502-56.135-26.246-88.053-26.246c-22.645,0-43.764,4.118-63.312,12.354c-19.559,8.251-36.842,19.831-51.758,34.747
			c-14.941,14.938-26.535,32.199-34.746,51.75c-8.275,19.581-12.395,40.162-12.395,61.79v222.446
			c0,21.635,4.375,42.239,13.168,61.78c8.729,19.589,20.299,36.851,34.744,51.767c14.402,14.938,31.686,26.512,51.758,34.755
			c20.09,8.243,40.959,12.36,62.541,12.36c32.975,0,62.828-8.759,89.623-26.276c26.738-17.487,46.811-41.701,60.227-72.604
			c5.158-11.306,12.346-20.307,21.645-27.02c9.273-6.688,20.088-10.032,32.402-10.032c16.486,0,30.402,5.923,41.734,17.761
			c11.336,11.846,17,25.488,17,40.92c0,7.234-1.547,14.447-4.633,21.611c-20.637,45.336-45.342,79.855-74.168,103.508
			c-28.822,23.698-56.904,40.701-84.158,51.008c-27.332,10.298-50.469,15.939-69.559,16.972
			c-19.033,1.008-29.082,1.547-30.113,1.547c-38.1,0-74.137-7.188-108.115-21.613c-33.998-14.424-63.605-34.262-88.85-59.483
			c-25.215-25.215-45.279-54.844-60.229-88.816c-14.916-33.981-22.41-70.019-22.41-108.141V2628.445L2813.506,2628.445z"/>
		<path fill="#1C2856" d="M3460.762,2160.388c0-16.456,5.617-30.356,16.957-41.701c11.359-11.322,25.244-16.995,41.73-16.995
			c15.455,0,29.082,5.673,40.928,16.995c11.832,11.345,17.809,25.246,17.809,41.701v196.185h299.668
			c16.439,0,30.324,5.665,41.686,17.002c11.33,11.33,17.004,25.246,17.004,41.702c0,15.447-5.674,29.098-17.004,40.937
			c-11.359,11.853-25.244,17.76-41.686,17.76h-299.67v376.921c0,21.635,4.354,42.239,13.111,61.78
			c8.729,19.59,20.322,36.851,34.746,51.767c14.402,14.938,31.662,26.512,51.758,34.755c20.066,8.243,40.93,12.361,62.572,12.361
			c32.918,0,62.773-8.76,89.568-26.277c26.791-17.487,46.881-41.701,60.25-72.604c5.156-11.307,12.369-20.308,21.643-27.021
			c9.244-6.688,20.066-10.032,32.459-10.032c16.432,0,30.316,5.924,41.654,17.762c11.338,11.846,17.025,25.487,17.025,40.92
			c0,7.233-1.57,14.446-4.635,21.61c-20.611,45.336-45.311,79.855-74.145,103.509c-28.846,23.697-56.951,40.7-84.207,51.008
			c-27.309,10.297-50.467,15.938-69.502,16.971c-19.086,1.008-29.135,1.547-30.113,1.547c-38.129,0-74.188-7.188-108.146-21.613
			c-33.973-14.424-63.625-34.262-88.842-59.483c-25.246-25.215-45.318-54.844-60.258-88.815
			c-14.916-33.982-22.363-70.02-22.363-108.142v-690.508H3460.762z"/>
		<path fill="#1C2856" d="M4060.137,2628.445c0-38.083,7.156-74.15,21.639-108.132c14.398-33.974,34.494-63.563,60.225-88.817
			c25.717-25.223,55.359-45.045,88.801-59.47c33.459-14.416,69.762-21.628,108.938-21.628c38.074,0,74.111,7.212,108.15,21.628
			c33.947,14.425,63.545,34.247,88.793,59.47c25.221,25.254,45.311,54.844,60.225,88.817c14.941,33.981,22.41,70.049,22.41,108.132
			v222.446c0,38.122-7.211,74.158-21.635,108.142c-14.4,33.973-34.465,63.602-60.227,88.815
			c-25.764,25.223-55.619,45.062-89.566,59.483c-34.039,14.426-70.076,21.613-108.15,21.613c-38.146,0-74.135-7.188-108.162-21.613
			c-33.957-14.424-63.557-34.262-88.801-59.483c-25.271-25.215-45.334-54.844-60.229-88.815
			c-14.963-33.982-22.41-70.02-22.41-108.142V2628.445L4060.137,2628.445z M4177.527,2850.893c0,21.635,4.375,42.24,13.111,61.781
			c8.736,19.589,20.348,36.85,34.746,51.766c14.402,14.939,31.691,26.512,51.758,34.755c20.088,8.243,40.959,12.361,62.596,12.361
			c22.621,0,43.74-4.118,63.299-12.361c19.551-8.243,36.834-19.814,51.75-34.755c14.938-14.916,26.533-32.177,34.754-51.766
			c8.268-19.541,12.385-40.146,12.385-61.781v-222.446c0-21.627-4.377-42.209-13.111-61.79c-8.783-19.55-20.4-36.811-34.803-51.75
			c-14.398-14.916-31.629-26.496-51.703-34.747c-20.088-8.235-40.928-12.354-62.57-12.354c-22.688,0-43.816,4.118-63.367,12.354
			c-19.551,8.251-36.842,19.831-51.703,34.747c-14.996,14.939-26.537,32.2-34.803,51.75c-8.219,19.581-12.338,40.162-12.338,61.79
			V2850.893z"/>
		<path fill="#1C2856" d="M4730.553,2415.275c0-16.456,5.617-30.372,16.955-41.702c11.328-11.337,25.213-17.002,41.701-17.002
			c13.4,0,25.502,4.392,36.324,13.134c10.814,8.775,17.801,20.34,20.863,34.756c48.383-36.045,105.029-54.062,169.893-54.062
			c36.035,3.094,64.656,7.72,85.785,13.9c21.072,6.181,40.365,15.197,57.883,27.035c17.541,11.846,26.277,28.566,26.277,50.194
			c0,17.526-5.674,31.669-17.004,42.49c-11.336,10.806-25.246,16.213-41.688,16.213c-13.414,0-25.266-3.586-35.518-10.806
			c-25.787-14.409-53.07-21.621-81.871-21.621c-22.691,0-43.562,4.117-62.596,12.354c-19.09,8.251-36.037,19.307-50.979,33.215
			c-14.916,13.9-26.51,30.113-34.729,48.647c-8.291,18.549-12.9,38.63-13.91,60.25v441.78c0,16.487-5.664,30.403-17.004,41.733
			c-11.336,11.337-25.221,16.979-41.73,16.979c-15.432,0-29.059-5.644-40.938-16.979c-11.846-11.33-17.719-25.246-17.719-41.733
			V2617.64v-202.364H4730.553z"/>
		<path fill="#1C2856" d="M5246.461,2143.4c0-16.463,5.664-30.372,17.025-41.709c11.283-11.322,25.223-16.995,41.709-16.995
			c15.455,0,29.082,5.673,40.928,16.995c11.832,11.338,17.754,25.246,17.754,41.709v44.795c0,16.479-5.666,30.386-17.004,41.709
			c-11.336,11.345-25.244,16.986-41.678,16.986c-15.455,0-29.137-5.642-40.936-16.986c-11.854-11.323-17.799-25.23-17.799-41.709
			V2143.4L5246.461,2143.4z M5246.461,2415.275c0-16.456,5.664-30.372,17.025-41.702c11.283-11.337,25.223-17.002,41.709-17.002
			c15.455,0,29.082,5.665,40.928,17.002c11.832,11.33,17.754,25.246,17.754,41.702v648.779c0,16.486-5.666,30.402-17.004,41.732
			c-11.336,11.337-25.244,16.979-41.678,16.979c-15.455,0-29.137-5.644-40.936-16.979c-11.854-11.33-17.799-25.246-17.799-41.732
			V2415.275L5246.461,2415.275z"/>
	</g>
</g>
</svg>
