<svg id="Layer_1" data-name="Layer 1" xmlns="http://www.w3.org/2000/svg" viewBox="0 0 17 26.01"><defs><style>.cls-1,.cls-2{fill:#2f9ba6;}.cls-2{fill-rule:evenodd;}</style></defs><title>Ellipse 1</title><path class="cls-1" d="M306.5,387a8.29,8.29,0,0,0-8.5,8.07c0,4.46,8.5,17.94,8.5,17.94s8.5-13.48,8.5-17.94A8.29,8.29,0,0,0,306.5,387Zm0,22.15c-.73-1.24-1.62-2.78-2.5-4.41-3.71-6.86-4-9.14-4-9.67a6.51,6.51,0,0,1,13,0c0,.53-.29,2.81-4,9.69C308.11,406.39,307.23,407.92,306.5,409.15Z" transform="translate(-298 -386.99)"/><path class="cls-2" d="M306.5,391a3.5,3.5,0,1,0,3.5,3.5A3.5,3.5,0,0,0,306.5,391Zm0,5a1.5,1.5,0,1,1,1.5-1.5A1.5,1.5,0,0,1,306.5,396Z" transform="translate(-298 -386.99)"/></svg>