<?xml version="1.0" encoding="utf-8"?>
<!-- Generator: Adobe Illustrator 16.0.0, SVG Export Plug-In . SVG Version: 6.00 Build 0)  -->
<!DOCTYPE svg PUBLIC "-//W3C//DTD SVG 1.1//EN" "http://www.w3.org/Graphics/SVG/1.1/DTD/svg11.dtd">
<svg version="1.1" id="Layer_1" xmlns="http://www.w3.org/2000/svg" xmlns:xlink="http://www.w3.org/1999/xlink" x="0px" y="0px"
	 width="97px" height="83px" viewBox="0 0 97 83" enable-background="new 0 0 97 83" xml:space="preserve">
<path opacity="0.15" fill="#939598" d="M91.319,4.426H7.238c-3.138,0-5.682,2.544-5.682,5.682v47.291v4.529
	c0,3.139,2.544,5.684,5.682,5.684h31.199l-1.751,10.928H29.88c-0.87,0-1.575,0.705-1.575,1.574s0.705,1.574,1.575,1.574h38.798
	c0.869,0,1.574-0.705,1.574-1.574s-0.705-1.574-1.574-1.574h-6.806l-1.753-10.928h31.2c3.137,0,5.681-2.545,5.681-5.684v-4.529
	V10.107C97,6.97,94.456,4.426,91.319,4.426z"/>
<g>
	<g>
		<path fill="#FFFFFF" d="M95.443,57.502c0,3.139-2.544,5.684-5.681,5.684H5.682C2.544,63.186,0,60.641,0,57.502V5.682
			C0,2.544,2.544,0,5.682,0h84.081c3.137,0,5.681,2.544,5.681,5.682V57.502z"/>
	</g>
	<g>
		<path fill="#2C97A5" d="M0,52.973v4.529c0,3.139,2.544,5.684,5.682,5.684h31.199l-2.004,12.502h25.69l-2.005-12.502h31.2
			c3.137,0,5.681-2.545,5.681-5.684v-4.529H0z"/>
	</g>
	<g>
		<path fill="#2C97A5" d="M67.121,77.262H28.323c-0.87,0-1.575-0.705-1.575-1.574s0.705-1.574,1.575-1.574h38.798
			c0.869,0,1.574,0.705,1.574,1.574S67.99,77.262,67.121,77.262z"/>
	</g>
	<g>
		<g>
			<path fill="#C6C6C6" d="M62.342,30.325h-29.24c-0.87,0-1.575-0.705-1.575-1.575s0.705-1.575,1.575-1.575h29.24
				c0.869,0,1.575,0.705,1.575,1.575S63.211,30.325,62.342,30.325z"/>
		</g>
		<g>
			<path fill="#C6C6C6" d="M62.342,37.614c-0.869,0-1.575-0.705-1.575-1.575V21.418c0-0.87,0.706-1.575,1.575-1.575
				s1.575,0.706,1.575,1.575v14.621C63.917,36.909,63.211,37.614,62.342,37.614z"/>
		</g>
		<g>
			<path fill="#C6C6C6" d="M33.102,37.614c-0.87,0-1.575-0.705-1.575-1.575V21.418c0-0.87,0.705-1.575,1.575-1.575
				s1.575,0.706,1.575,1.575v14.621C34.677,36.909,33.972,37.614,33.102,37.614z"/>
		</g>
		<g>
			<g>
				<path fill="#C6C6C6" d="M71.307,30.325h-3.222c-0.869,0-1.574-0.705-1.574-1.575s0.705-1.575,1.574-1.575h3.222
					c0.869,0,1.574,0.705,1.574,1.575S72.176,30.325,71.307,30.325z"/>
			</g>
			<g>
				<path fill="#C6C6C6" d="M27.357,30.325h-3.22c-0.87,0-1.574-0.705-1.574-1.575s0.704-1.575,1.574-1.575h3.22
					c0.87,0,1.575,0.705,1.575,1.575S28.228,30.325,27.357,30.325z"/>
			</g>
			<g>
				<path fill="#B11163" d="M67.39,34.321c-0.481,0-0.871-0.39-0.871-0.872v-9.442c0-0.481,0.39-0.871,0.871-0.871
					c0.48,0,0.871,0.39,0.871,0.871v9.442C68.261,33.931,67.87,34.321,67.39,34.321z"/>
			</g>
			<g>
				<path fill="#B11163" d="M28.054,34.321c-0.481,0-0.871-0.39-0.871-0.872v-9.442c0-0.481,0.39-0.871,0.871-0.871
					s0.872,0.39,0.872,0.871v9.442C28.926,33.931,28.535,34.321,28.054,34.321z"/>
			</g>
		</g>
	</g>
</g>
</svg>
