<?xml version="1.0" encoding="utf-8"?>
<!-- Generator: Adobe Illustrator 16.0.0, SVG Export Plug-In . SVG Version: 6.00 Build 0)  -->
<!DOCTYPE svg PUBLIC "-//W3C//DTD SVG 1.1//EN" "http://www.w3.org/Graphics/SVG/1.1/DTD/svg11.dtd">
<svg version="1.1" id="Layer_1" xmlns="http://www.w3.org/2000/svg" xmlns:xlink="http://www.w3.org/1999/xlink" x="0px" y="0px"
	 width="97px" height="83px" viewBox="0 0 97 83" enable-background="new 0 0 97 83" xml:space="preserve">
<path opacity="0.15" fill="#939598" d="M86.916,6H29.507c-6.088,0-11.023,4.938-11.023,11.027v48.782H6.259v4.855
	c0,6.09,4.935,11.023,11.024,11.023h49.723h1.058c6.088,0,11.025-4.934,11.025-11.023V24.107h15.65V13.826
	C94.74,9.506,91.238,6,86.916,6z"/>
<g>
	<g>
		<path fill="#FFFFFF" d="M84.916,0H27.507c-6.088,0-11.023,4.938-11.023,11.027v48.782H4.259v4.855
			c0,6.09,4.935,11.023,11.024,11.023h50.781c-2.387,0,0,0,0,0c6.088,0,11.025-4.934,11.025-11.023V18.107h15.65V7.826
			C92.74,3.506,89.238,0,84.916,0z"/>
	</g>
	<g>
		<path fill="#C6C6C6" d="M61.553,50.496c-0.223,0-0.438-0.086-0.598-0.242l-3.396-3.312c-0.338-0.33-0.346-0.873-0.016-1.213
			c0.332-0.338,0.875-0.344,1.213-0.016l2.678,2.613l5.098-7.18c0.275-0.385,0.809-0.477,1.195-0.203s0.477,0.809,0.203,1.195
			l-5.678,7.996c-0.145,0.205-0.371,0.336-0.621,0.357C61.605,50.494,61.58,50.496,61.553,50.496z"/>
	</g>
	<g>
		<path fill="#2C97A5" d="M66.064,75.688c-6.088,0-11.025-4.934-11.025-11.023v-4.855H4.259v4.855
			c0,6.09,4.935,11.023,11.024,11.023H66.064"/>
	</g>
	<g>
		<path fill="#2C97A5" d="M77.09,7.826C77.09,3.506,80.592,0,84.916,0c4.322,0,7.824,3.506,7.824,7.826v10.281H77.09V7.826z"/>
	</g>
	<g>
		<path fill="#C6C6C6" d="M61.553,25.592c-0.223,0-0.438-0.087-0.598-0.244l-3.396-3.312c-0.338-0.331-0.346-0.873-0.016-1.211
			c0.332-0.339,0.875-0.346,1.213-0.016l2.678,2.612l5.098-7.18c0.275-0.386,0.809-0.477,1.195-0.202
			c0.387,0.273,0.477,0.809,0.203,1.194l-5.678,7.998c-0.145,0.204-0.371,0.334-0.621,0.357
			C61.605,25.59,61.58,25.592,61.553,25.592z"/>
	</g>
	<g>
		<path fill="#B11163" d="M61.553,38.058c-0.227,0-0.443-0.088-0.607-0.247l-3.396-3.312c-0.344-0.336-0.352-0.888-0.016-1.233
			c0.338-0.345,0.889-0.351,1.232-0.015l2.668,2.601l5.086-7.166c0.279-0.393,0.822-0.485,1.215-0.207
			c0.393,0.279,0.486,0.823,0.207,1.215l-5.678,7.997c-0.148,0.208-0.379,0.341-0.633,0.363
			C61.605,38.056,61.58,38.058,61.553,38.058z"/>
	</g>
	<g>
		<path fill="#C6C6C6" d="M50.699,48.555H27.908c-0.473,0-0.856-0.385-0.856-0.857s0.384-0.855,0.856-0.855h22.792
			c0.473,0,0.857,0.383,0.857,0.855S51.172,48.555,50.699,48.555z"/>
	</g>
	<g>
		<path fill="#C6C6C6" d="M50.699,35.073H27.908c-0.473,0-0.856-0.384-0.856-0.856c0-0.474,0.384-0.857,0.856-0.857h22.792
			c0.473,0,0.857,0.384,0.857,0.857C51.557,34.689,51.172,35.073,50.699,35.073z"/>
	</g>
	<g>
		<path fill="#C6C6C6" d="M50.699,21.593H27.908c-0.473,0-0.856-0.384-0.856-0.857c0-0.474,0.384-0.857,0.856-0.857h22.792
			c0.473,0,0.857,0.383,0.857,0.857C51.557,21.209,51.172,21.593,50.699,21.593z"/>
	</g>
</g>
</svg>
