<?xml version="1.0" encoding="utf-8"?>
<!-- Generator: Adobe Illustrator 16.0.0, SVG Export Plug-In . SVG Version: 6.00 Build 0)  -->
<!DOCTYPE svg PUBLIC "-//W3C//DTD SVG 1.1//EN" "http://www.w3.org/Graphics/SVG/1.1/DTD/svg11.dtd">
<svg version="1.1" id="Layer_1" xmlns="http://www.w3.org/2000/svg" xmlns:xlink="http://www.w3.org/1999/xlink" x="0px" y="0px"
	 width="97px" height="83px" viewBox="0 0 97 83" enable-background="new 0 0 97 83" xml:space="preserve">
<path opacity="0.15" fill="#939598" d="M82.089,43.879c-2.882,0-5.503,1.09-7.497,2.868c-0.005-0.006-0.006-0.014-0.012-0.019
	l-5.386-5.489c2.442-3.606,3.869-7.955,3.869-12.638c0-12.462-10.101-22.564-22.563-22.564c-12.461,0-22.563,10.103-22.563,22.564
	c0,4.737,1.463,9.132,3.958,12.762l-5.462,5.356c-0.009,0.009-0.012,0.021-0.021,0.03c-1.995-1.78-4.617-2.871-7.5-2.871
	c-6.231,0-11.282,5.053-11.282,11.282c0,6.231,5.051,11.283,11.282,11.283c6.23,0,11.282-5.052,11.282-11.283
	c0-2.846-1.062-5.438-2.802-7.424c0.008-0.007,0.017-0.009,0.024-0.016l5.32-5.217c3.996,5.098,10.134,8.43,17.062,8.643v7.975
	c0,0.013,0.007,0.022,0.007,0.035c-5.905,0.361-10.585,5.251-10.585,11.247c0,6.231,5.05,11.283,11.281,11.283
	s11.282-5.052,11.282-11.283c0-5.996-4.682-10.886-10.587-11.247c0.001-0.013,0.007-0.022,0.007-0.035v-7.975
	c6.98-0.214,13.16-3.595,17.152-8.757l5.222,5.323c0.01,0.01,0.023,0.014,0.034,0.022c-1.74,1.986-2.803,4.579-2.803,7.426
	c0,6.231,5.051,11.283,11.281,11.283s11.282-5.052,11.282-11.283C93.371,48.932,88.319,43.879,82.089,43.879z"/>
<g>
	<g>
		<line fill="#66B2E3" x1="48.5" y1="53.085" x2="48.5" y2="43.522"/>
		<path fill="#C6C6C6" d="M48.5,53.788c-0.388,0-0.702-0.314-0.702-0.703v-9.562c0-0.388,0.314-0.702,0.702-0.702
			s0.702,0.314,0.702,0.702v9.562C49.202,53.474,48.888,53.788,48.5,53.788z"/>
	</g>
	<g>
		<line fill="#66B2E3" x1="24.924" y1="41.184" x2="31.153" y2="35.075"/>
		<path fill="#C6C6C6" d="M24.924,41.887c-0.182,0-0.363-0.07-0.501-0.211c-0.271-0.277-0.267-0.722,0.01-0.993l6.229-6.108
			c0.277-0.272,0.721-0.267,0.993,0.009c0.271,0.277,0.267,0.722-0.01,0.994l-6.229,6.107
			C25.279,41.819,25.102,41.887,24.924,41.887z"/>
	</g>
	<g>
		<line fill="#66B2E3" x1="72.077" y1="41.184" x2="66.086" y2="35.075"/>
		<path fill="#C6C6C6" d="M72.077,41.887c-0.181,0-0.362-0.07-0.501-0.211l-5.992-6.108c-0.271-0.277-0.267-0.722,0.01-0.993
			c0.277-0.271,0.722-0.268,0.993,0.009l5.993,6.108c0.271,0.277,0.267,0.723-0.011,0.993
			C72.434,41.819,72.256,41.887,72.077,41.887z"/>
	</g>
	<g>
		<circle fill="#FFFFFF" cx="48.5" cy="22.564" r="22.563"/>
	</g>
	<g>
		<circle fill="#2C97A5" cx="48.501" cy="64.367" r="11.281"/>
	</g>
	<g>
		<path fill="#C6C6C6" d="M48.5,33.377c-5.963,0-10.814-4.85-10.814-10.812c0-0.388,0.314-0.702,0.702-0.702h20.225
			c0.388,0,0.702,0.314,0.702,0.702C59.314,28.527,54.464,33.377,48.5,33.377z M39.116,23.267c0.36,4.861,4.431,8.706,9.384,8.706
			c4.953,0,9.023-3.845,9.384-8.706H39.116z"/>
	</g>
	<g>
		<g>
			<path fill="#C6C6C6" d="M44.781,18.656c-0.388,0-0.702-0.314-0.702-0.702c0-1.42-1.155-2.575-2.575-2.575
				c-1.419,0-2.575,1.155-2.575,2.575c0,0.388-0.314,0.702-0.702,0.702c-0.388,0-0.702-0.314-0.702-0.702
				c0-2.194,1.785-3.979,3.979-3.979c2.194,0,3.979,1.785,3.979,3.979C45.484,18.342,45.169,18.656,44.781,18.656z"/>
		</g>
		<g>
			<path fill="#C6C6C6" d="M58.772,18.656c-0.388,0-0.702-0.314-0.702-0.702c0-1.42-1.155-2.575-2.575-2.575
				c-1.419,0-2.575,1.155-2.575,2.575c0,0.388-0.314,0.702-0.702,0.702s-0.701-0.314-0.701-0.702c0-2.194,1.785-3.979,3.979-3.979
				c2.194,0,3.979,1.785,3.979,3.979C59.475,18.342,59.16,18.656,58.772,18.656z"/>
		</g>
	</g>
	<g>
		<path fill="#C6C6C6" d="M47.564,68.112c-0.182,0-0.358-0.07-0.49-0.199l-2.783-2.714c-0.278-0.271-0.284-0.716-0.012-0.993
			c0.271-0.278,0.715-0.283,0.993-0.013l2.195,2.142l4.179-5.885c0.225-0.316,0.663-0.391,0.979-0.167
			c0.317,0.225,0.391,0.663,0.167,0.979l-4.654,6.554c-0.119,0.168-0.305,0.274-0.509,0.293
			C47.606,68.111,47.585,68.112,47.564,68.112z"/>
	</g>
	<g>
		<g>
			<circle fill="#FFFFFF" cx="80.089" cy="49.124" r="11.282"/>
		</g>
		<g>
			<path fill="#B11163" d="M80.089,52.555c-1.891,0-3.428-1.539-3.428-3.431c0-1.891,1.537-3.43,3.428-3.43
				c1.892,0,3.429,1.539,3.429,3.43C83.518,51.016,81.98,52.555,80.089,52.555z M80.089,47.438c-0.929,0-1.685,0.757-1.685,1.687
				c0,0.931,0.756,1.688,1.685,1.688c0.93,0,1.687-0.757,1.687-1.688C81.775,48.194,81.019,47.438,80.089,47.438z"/>
		</g>
		<g>
			<circle fill="#FFFFFF" cx="16.911" cy="49.124" r="11.282"/>
		</g>
		<g>
			<path fill="#B11163" d="M15.976,53.038c-0.226,0-0.445-0.088-0.609-0.248l-2.783-2.717c-0.344-0.335-0.351-0.888-0.015-1.231
				c0.336-0.345,0.888-0.352,1.232-0.015l2.053,2.005l4.064-5.724c0.279-0.392,0.823-0.484,1.215-0.205
				c0.392,0.278,0.485,0.822,0.206,1.214l-4.654,6.555c-0.147,0.208-0.378,0.341-0.632,0.363
				C16.027,53.037,16.001,53.038,15.976,53.038z"/>
		</g>
	</g>
</g>
</svg>
