<?xml version="1.0" encoding="utf-8"?>
<!-- Generator: Adobe Illustrator 16.0.0, SVG Export Plug-In . SVG Version: 6.00 Build 0)  -->
<!DOCTYPE svg PUBLIC "-//W3C//DTD SVG 1.1//EN" "http://www.w3.org/Graphics/SVG/1.1/DTD/svg11.dtd">
<svg version="1.1" id="Layer_1" xmlns="http://www.w3.org/2000/svg" xmlns:xlink="http://www.w3.org/1999/xlink" x="0px" y="0px"
	 width="97px" height="83px" viewBox="0 0 97 83" enable-background="new 0 0 97 83" xml:space="preserve">
<g opacity="0.15">
	<path fill="#939598" d="M88.344,43.847c0,20.897-16.943,37.841-37.845,37.841S12.656,64.744,12.656,43.847
		C12.656,22.941,29.598,6,50.499,6S88.344,22.941,88.344,43.847z"/>
</g>
<g>
	<g>
		<path fill="#FFFFFF" d="M86.344,37.846c0,20.898-16.943,37.841-37.845,37.841S10.656,58.744,10.656,37.846
			C10.656,16.941,27.598,0,48.499,0S86.344,16.941,86.344,37.846z"/>
	</g>
	<g>
		<line fill="#66B2E3" x1="48.499" y1="11.567" x2="48.499" y2="18.136"/>
		<path fill="#B11163" d="M48.499,19.008c-0.481,0-0.872-0.39-0.872-0.872v-6.569c0-0.481,0.39-0.872,0.872-0.872
			s0.872,0.39,0.872,0.872v6.569C49.371,18.618,48.98,19.008,48.499,19.008z"/>
	</g>
	<g>
		<circle fill="#2C97A5" cx="48.5" cy="40.856" r="10.326"/>
	</g>
	<g>
		<path fill="#C6C6C6" d="M71.263,25.577c-0.302,0-0.595-0.156-0.756-0.435c-4.533-7.836-12.966-12.704-22.008-12.704
			c-9.04,0-17.472,4.867-22.006,12.702c-0.241,0.416-0.774,0.559-1.19,0.317c-0.417-0.241-0.559-0.774-0.318-1.19
			c4.844-8.372,13.855-13.572,23.515-13.572c9.662,0,18.673,5.202,23.517,13.574c0.241,0.417,0.099,0.95-0.318,1.19
			C71.56,25.54,71.409,25.577,71.263,25.577z"/>
	</g>
	<g>
		<line fill="#66B2E3" x1="69.593" y1="22.176" x2="65.98" y2="25.918"/>
		<path fill="#C6C6C6" d="M65.98,26.79c-0.218,0-0.438-0.082-0.605-0.245c-0.346-0.334-0.356-0.886-0.021-1.232l3.612-3.742
			c0.336-0.347,0.887-0.356,1.232-0.022c0.347,0.334,0.356,0.886,0.021,1.232l-3.612,3.743C66.437,26.701,66.208,26.79,65.98,26.79z
			"/>
	</g>
	<g>
		<line fill="#66B2E3" x1="27.399" y1="22.176" x2="31.013" y2="25.918"/>
		<path fill="#C6C6C6" d="M31.013,26.79c-0.228,0-0.456-0.089-0.627-0.266l-3.614-3.742c-0.334-0.347-0.325-0.898,0.021-1.232
			s0.898-0.325,1.232,0.021l3.614,3.743c0.334,0.346,0.324,0.897-0.021,1.232C31.449,26.708,31.23,26.79,31.013,26.79z"/>
	</g>
	<g>
		<path fill="#C6C6C6" d="M48.5,41.728c-0.341,0-0.664-0.202-0.804-0.535l-7.588-18.092c-0.187-0.444,0.022-0.955,0.466-1.141
			c0.445-0.186,0.955,0.023,1.141,0.467l7.588,18.092c0.187,0.443-0.022,0.954-0.466,1.14C48.727,41.706,48.612,41.728,48.5,41.728z
			"/>
	</g>
</g>
</svg>
