<?xml version="1.0" encoding="UTF-8"?>
<svg width="15px" height="15px" viewBox="0 0 15 15" version="1.1" xmlns="http://www.w3.org/2000/svg" xmlns:xlink="http://www.w3.org/1999/xlink">
    <!-- Generator: Sketch 43.1 (39012) - http://www.bohemiancoding.com/sketch -->
    <title>select-icons</title>
    <desc>Created with Sketch.</desc>
    <defs></defs>
    <g id="Page-1" stroke="none" stroke-width="1" fill="none" fill-rule="evenodd">
        <g id="select-icons" transform="translate(-16.000000, -16.000000)" fill="#FFFFFF">
            <path d="M26.9375,25.140625 L26.78125,25.4140625 L31,29.671875 L29.671875,31 L25.453125,26.7421875 L25.1796875,26.9375 C24.1380156,27.5885449 23.0572973,27.9140625 21.9375,27.9140625 C20.2968668,27.9140625 18.8971412,27.3281309 17.7382812,26.15625 C16.5794213,24.9843691 16,23.5781332 16,21.9375 C16,20.2968668 16.5794213,18.8971412 17.7382812,17.7382812 C18.8971412,16.5794213 20.2968668,16 21.9375,16 C23.5781332,16 24.9778588,16.5794213 26.1367188,17.7382812 C27.2955787,18.8971412 27.875,20.2968668 27.875,21.9375 C27.875,23.0833391 27.5625031,24.1510367 26.9375,25.140625 Z M25.2578125,18.6171875 C24.3463496,17.7057246 23.2395898,17.25 21.9375,17.25 C20.6354102,17.25 19.5286504,17.7057246 18.6171875,18.6171875 C17.7057246,19.5286504 17.25,20.6354102 17.25,21.9375 C17.25,23.2395898 17.7057246,24.3463496 18.6171875,25.2578125 C19.5286504,26.1692754 20.6354102,26.625 21.9375,26.625 C23.2395898,26.625 24.3463496,26.1692754 25.2578125,25.2578125 C26.1953172,24.3203078 26.6640625,23.213548 26.6640625,21.9375 C26.6640625,20.661452 26.1953172,19.5546922 25.2578125,18.6171875 Z" id="ion-ios-search-strong---Ionicons"></path>
        </g>
    </g>
</svg>